<svg xmlns="http://www.w3.org/2000/svg" viewBox="0 0 160 90"><defs><style>.cls-1{opacity:0.6;}.cls-2{fill:#fe6228;}</style></defs><g id="Camada_3" data-name="Camada 3"><path class="cls-2" d="M28.53,10.65c3.11-1.9,4.9-2.85,5.35-2.85s1.17.58,2.15,1.74a5.17,5.17,0,0,1,1.46,3.14V25.89c0,.2-1.12.75-3.38,1.66s-4.11,1.58-5.58,2v4.29a5.38,5.38,0,0,0,.34,2.25,1.42,1.42,0,0,0,1.4.68v1.31l-8.7,3.65-.68-1.35a2.33,2.33,0,0,0,1.78-1.11,5.54,5.54,0,0,0,.76-3.23v-22c0-1.73-.58-2.71-1.74-2.93v-.94L26,7.8A5.06,5.06,0,0,1,27.68,9,2.49,2.49,0,0,1,28.53,10.65Zm1.66,1.23a2.93,2.93,0,0,0-1.66.63V27.59a5.38,5.38,0,0,0,2.46-.7c.91-.47,1.36-1,1.36-1.47V15C32.35,12.93,31.63,11.88,30.19,11.88Z"/><path class="cls-2" d="M51.72,16.21a3.13,3.13,0,0,1,1.06.66,9.47,9.47,0,0,1,1.7,1.82A3.94,3.94,0,0,1,55.33,21V28.1c0,.51-.75,1.13-2.25,1.87a33.62,33.62,0,0,1-4.36,1.8,22.17,22.17,0,0,1-2.27.7q0,3.27,2.85,4a14.16,14.16,0,0,0,3.35.34v1.23q-7,2.34-7.43,2.34c-.85,0-1.71-.61-2.59-1.81a7,7,0,0,1-1.32-4.22V20.12c0-.2,1.62-.9,4.84-2.11A33,33,0,0,1,51.72,16.21Zm-2,4.73a1.64,1.64,0,0,0-1.4-.82,3.62,3.62,0,0,0-1.87.63v9.81q3.83-1.05,3.82-4.58V23A3.57,3.57,0,0,0,49.68,20.94Z"/><path class="cls-2" d="M59.36,45.09V22.75a3.86,3.86,0,0,0-.53-1.91,2,2,0,0,0-1.51-1.06v-.94A52.09,52.09,0,0,0,62,16.25a5.31,5.31,0,0,1,1.76,1.25,2.36,2.36,0,0,1,.79,1.55c3-1.86,4.8-2.8,5.31-2.8a2.59,2.59,0,0,1,1.12.66,8.33,8.33,0,0,1,1.66,1.91,4.63,4.63,0,0,1,.83,2.57V36.51c0,.2-1.26.78-3.76,1.76s-4.24,1.59-5.2,1.85v1.57c0,1.73.58,2.7,1.74,2.93v.93L61.91,48a5,5,0,0,1-1.74-1.26A2.49,2.49,0,0,1,59.36,45.09Zm6.8-24.93a2.71,2.71,0,0,0-1.66.68V37.7A5.34,5.34,0,0,0,67,37c.91-.49,1.36-1,1.36-1.53V23.3C68.32,21.21,67.6,20.16,66.16,20.16Z"/><path class="cls-2" d="M77.62,45.09V22.75a3.86,3.86,0,0,0-.53-1.91,2,2,0,0,0-1.51-1.06v-.94a52.09,52.09,0,0,0,4.63-2.59A5.31,5.31,0,0,1,82,17.5a2.36,2.36,0,0,1,.79,1.55c3-1.86,4.8-2.8,5.31-2.8a2.59,2.59,0,0,1,1.12.66,8.1,8.1,0,0,1,1.66,1.91,4.63,4.63,0,0,1,.83,2.57V36.51c0,.2-1.25.78-3.76,1.76s-4.24,1.59-5.2,1.85v1.57c0,1.73.58,2.7,1.74,2.93v.93L80.17,48a5.07,5.07,0,0,1-1.74-1.26A2.49,2.49,0,0,1,77.62,45.09Zm6.8-24.93a2.71,2.71,0,0,0-1.66.68V37.7A5.31,5.31,0,0,0,85.22,37c.91-.49,1.36-1,1.36-1.53V23.3C86.58,21.21,85.86,20.16,84.42,20.16Z"/><path class="cls-2" d="M106.29,16.21a3.13,3.13,0,0,1,1.06.66,9.47,9.47,0,0,1,1.7,1.82A3.94,3.94,0,0,1,109.9,21V28.1c0,.51-.75,1.13-2.26,1.87a33.51,33.51,0,0,1-4.35,1.8,22.17,22.17,0,0,1-2.27.7q0,3.27,2.85,4a14.16,14.16,0,0,0,3.35.34v1.23q-7,2.34-7.43,2.34c-.85,0-1.71-.61-2.59-1.81a7,7,0,0,1-1.32-4.22V20.12c0-.2,1.62-.9,4.84-2.11A32.69,32.69,0,0,1,106.29,16.21Zm-2,4.73a1.64,1.64,0,0,0-1.4-.82,3.62,3.62,0,0,0-1.87.63v9.81q3.83-1.05,3.82-4.58V23A3.57,3.57,0,0,0,104.25,20.94Z"/><path class="cls-2" d="M111.85,18.76l4.67-2.55c.2.06.43.13.7.23a3.86,3.86,0,0,1,1.11.83,2.1,2.1,0,0,1,.7,1.53c.14-.06.81-.5,2-1.34a6.56,6.56,0,0,1,2.32-1.25A3.26,3.26,0,0,1,125.91,18a6,6,0,0,1,1.18,3.27v2.08l-4.37,2.47-.72-.6c0-2.38-.23-3.73-.68-4.07a3.88,3.88,0,0,0-2.29-.56V34.13c0,1.73.58,2.7,1.74,2.93V38l-4.29,2.43a4.89,4.89,0,0,1-1.74-1.26,2.49,2.49,0,0,1-.81-1.63V23.43a4.84,4.84,0,0,0-.66-2.8,1.8,1.8,0,0,0-1.42-.94Z"/><path class="cls-2" d="M29.29,47.23a1,1,0,0,0-.76.42V65.19a15.75,15.75,0,0,0,.21,2.87,5.83,5.83,0,0,0,.94,2.14q1.39,2,6.41,2v1.23A30.52,30.52,0,0,0,33,74.64a16,16,0,0,1-3.57,1.17q-2.13,0-4-2.45a8.19,8.19,0,0,1-1.92-5.16V47q0-.3,4.87-2.1a33.84,33.84,0,0,1,5.58-1.81c.17,0,.37.42.6,1.24s.48,1.81.78,3a10.3,10.3,0,0,0,.94,2.57,2,2,0,0,0,1.84.83v.85c-.62.28-1.67.78-3.16,1.5a19.82,19.82,0,0,1-2.4,1.09c-.42,0-1-1.16-1.61-3.46S29.69,47.23,29.29,47.23Z"/><path class="cls-2" d="M38.51,54.15l4.67-2.55c.2.06.43.13.7.23a3.86,3.86,0,0,1,1.11.83,2.1,2.1,0,0,1,.7,1.53c.14-.06.81-.5,2-1.34A6.56,6.56,0,0,1,50,51.6a3.26,3.26,0,0,1,2.55,1.78,6.06,6.06,0,0,1,1.19,3.27v2.08L49.38,61.2l-.72-.6c0-2.38-.23-3.74-.68-4.08A4,4,0,0,0,45.69,56V69.52c0,1.73.58,2.7,1.74,2.93v.93l-4.29,2.43a5,5,0,0,1-1.74-1.26,2.49,2.49,0,0,1-.81-1.63V58.82a4.84,4.84,0,0,0-.66-2.8,1.8,1.8,0,0,0-1.42-.94Z"/><path class="cls-2" d="M67.34,57.2v12a3.52,3.52,0,0,0,.51,2.19,2.84,2.84,0,0,0,1.58.87v.93l-4.63,2.6a4.89,4.89,0,0,1-1.74-1.26A2.47,2.47,0,0,1,62.25,73l-5.31,2.85-.38-.24a8.57,8.57,0,0,1-.87-.64,7.71,7.71,0,0,1-1.09-1,4.62,4.62,0,0,1-1.27-3.18v-7c0-.45.74-1,2.21-1.74A33.17,33.17,0,0,1,60,60.26l2.25-.72a4,4,0,0,0-1.28-3.38c-.85-.63-2.49-.95-4.92-.95V53.93A52.06,52.06,0,0,1,63.4,51.6a3.46,3.46,0,0,1,2.67,1.83A6.47,6.47,0,0,1,67.34,57.2ZM59.08,71a2,2,0,0,0,1.47.71,3,3,0,0,0,1.7-.64v-9.6c-.71.26-1.24.47-1.59.64a4.84,4.84,0,0,0-1.13.8,4.65,4.65,0,0,0-1.1,3.53v2.76A2.53,2.53,0,0,0,59.08,71Z"/><path class="cls-2" d="M73.54,66.5c-.7,0-1.31-.53-1.82-1.61a9.15,9.15,0,0,1-.77-4V56.35q0-.8,4.46-2.78a27.13,27.13,0,0,1,5.14-2,.84.84,0,0,1,.68.44c.2.3.35.54.47.73s.29.49.53.93.45.8.61,1.08a1.62,1.62,0,0,0,1.41,1v.85c-.46.2-1,.5-1.79.89A21.58,21.58,0,0,1,79.53,59c-.42,0-.88-.69-1.38-2.08s-.94-2.08-1.34-2.08-.76.42-.76,1.27v5.23c0,1.13.26,1.69.76,1.69A22.29,22.29,0,0,0,79.45,62a12.66,12.66,0,0,1,3-1.1c.68,0,1.28.54,1.8,1.63A9.59,9.59,0,0,1,85,66.67v4.8q0,.81-4.86,2.79a31.44,31.44,0,0,1-5.59,2c-.19,0-.39-.18-.57-.53s-.44-.9-.76-1.64a16.57,16.57,0,0,0-1-1.86,1.62,1.62,0,0,0-1.4-1v-.85q.67-.3,1.83-.9A21.5,21.5,0,0,1,75.58,68c.43,0,1,.83,1.6,2.5S78.33,73,78.73,73a1.23,1.23,0,0,0,1.18-1.27V66.38c0-1.28-.35-1.91-1.06-1.91a14.42,14.42,0,0,0-2.67,1A15,15,0,0,1,73.54,66.5Z"/><path class="cls-2" d="M88.79,72.92v-21a2.75,2.75,0,0,0-.38-1.64,1.61,1.61,0,0,0-1.32-.49V48.58q5.52-2.88,9.85-5.43l.68,1.36a7.58,7.58,0,0,0-1.19.83,7.94,7.94,0,0,0-1.27,1.25,5.71,5.71,0,0,0-1.27,3.65v3.61Q98.26,51.6,99,51.6a3.36,3.36,0,0,1,2.59,1.7A6.22,6.22,0,0,1,102.8,57V69.52a2.47,2.47,0,0,0,2.09,2.76v.93l-4.63,2.6a5,5,0,0,1-1.75-1.26,2.52,2.52,0,0,1-.8-1.63V60.6q0-4.16-1.53-4.71a7.44,7.44,0,0,0-2.29-.26V69.52c0,1.73.58,2.7,1.74,2.93v.93l-4.29,2.43a5,5,0,0,1-1.74-1.26A2.49,2.49,0,0,1,88.79,72.92Z"/><path class="cls-2" d="M117.45,51.6a3,3,0,0,1,1.07.66,9.47,9.47,0,0,1,1.7,1.82,3.92,3.92,0,0,1,.84,2.27v7.14c0,.51-.75,1.13-2.25,1.87a33.51,33.51,0,0,1-4.35,1.8,22.17,22.17,0,0,1-2.27.7q0,3.27,2.84,4a14.31,14.31,0,0,0,3.36.34v1.23q-7,2.34-7.43,2.34c-.85,0-1.72-.61-2.59-1.81a7,7,0,0,1-1.32-4.23V55.51q0-.3,4.84-2.11A33,33,0,0,1,117.45,51.6Zm-2,4.73a1.64,1.64,0,0,0-1.41-.82,3.61,3.61,0,0,0-1.86.63V66c2.54-.7,3.82-2.23,3.82-4.58v-3A3.65,3.65,0,0,0,115.42,56.33Z"/><path class="cls-2" d="M123,54.15l4.67-2.55c.2.06.43.13.7.23a3.72,3.72,0,0,1,1.1.83,2.06,2.06,0,0,1,.7,1.53,23.58,23.58,0,0,0,2-1.34,6.48,6.48,0,0,1,2.32-1.25,3.23,3.23,0,0,1,2.54,1.78,6,6,0,0,1,1.19,3.27v2.08l-4.37,2.47-.72-.6c0-2.38-.23-3.74-.68-4.08a4,4,0,0,0-2.3-.55V69.52c0,1.73.58,2.7,1.75,2.93v.93l-4.29,2.43a4.89,4.89,0,0,1-1.74-1.26,2.49,2.49,0,0,1-.81-1.63V58.82a4.84,4.84,0,0,0-.66-2.8,1.8,1.8,0,0,0-1.42-.94Z"/></g></svg>