<svg xmlns="http://www.w3.org/2000/svg" viewBox="0 0 160 90"><defs><style>.cls-1{opacity:0.6;}.cls-2{fill:#fe6228;}</style></defs><g id="Camada_3" data-name="Camada 3"><path d="M76,43a14,14,0,0,1,3-1.57c.25,0,.65.32,1.19,1A2.83,2.83,0,0,1,81,44.17v7.3c0,.11-.63.41-1.87.91s-2.27.88-3.09,1.13v2.37a3,3,0,0,0,.19,1.24.8.8,0,0,0,.78.38v.73l-4.81,2-.38-.75a1.29,1.29,0,0,0,1-.61,3.05,3.05,0,0,0,.42-1.78V44.94q0-1.42-1-1.62v-.51l2.37-1.34a2.88,2.88,0,0,1,.94.68A1.39,1.39,0,0,1,76,43Zm.92.68a1.61,1.61,0,0,0-.92.36v8.33A3.06,3.06,0,0,0,77.37,52q.75-.39.75-.81V45.46Q78.12,43.72,76.92,43.72Z"/><path d="M88.82,46.12a1.76,1.76,0,0,1,.58.36,4.64,4.64,0,0,1,.94,1,2.17,2.17,0,0,1,.47,1.25v3.95c0,.28-.41.62-1.24,1a19,19,0,0,1-2.41,1,11,11,0,0,1-1.25.38,2,2,0,0,0,1.57,2.23,7.63,7.63,0,0,0,1.85.19v.68c-2.56.86-3.93,1.29-4.1,1.29-.47,0-1-.33-1.44-1a3.86,3.86,0,0,1-.72-2.33V48.28a10.92,10.92,0,0,1,2.67-1.17A18.29,18.29,0,0,1,88.82,46.12Zm-1.13,2.61a.9.9,0,0,0-.77-.45,2,2,0,0,0-1,.35v5.42A2.49,2.49,0,0,0,88,51.51V49.85A2,2,0,0,0,87.69,48.73Z"/><path d="M93,62.07V49.73a2.2,2.2,0,0,0-.29-1.06,1.12,1.12,0,0,0-.84-.58v-.52a26.86,26.86,0,0,0,2.56-1.43,3.08,3.08,0,0,1,1,.69,1.32,1.32,0,0,1,.44.86,12,12,0,0,1,2.93-1.55,1.42,1.42,0,0,1,.62.36,4.76,4.76,0,0,1,.92,1.06,2.57,2.57,0,0,1,.46,1.42v8.35a7,7,0,0,1-2.08,1c-1.39.54-2.34.88-2.88,1v.87c0,.95.33,1.49,1,1.61v.52l-2.37,1.34a2.72,2.72,0,0,1-1-.69A1.42,1.42,0,0,1,93,62.07ZM96.79,48.3a1.47,1.47,0,0,0-.91.37V58a2.92,2.92,0,0,0,1.36-.4c.5-.26.75-.55.75-.84V50Q98,48.3,96.79,48.3Z"/><path d="M103.13,62.07V49.73a2.11,2.11,0,0,0-.3-1.06,1.08,1.08,0,0,0-.83-.58v-.52a26.86,26.86,0,0,0,2.56-1.43,3.08,3.08,0,0,1,1,.69,1.32,1.32,0,0,1,.44.86,12,12,0,0,1,2.93-1.55,1.42,1.42,0,0,1,.62.36,4.76,4.76,0,0,1,.92,1.06,2.56,2.56,0,0,1,.45,1.42v8.35a6.82,6.82,0,0,1-2.07,1c-1.39.54-2.34.88-2.88,1v.87c0,.95.32,1.49,1,1.61v.52l-2.37,1.34a2.72,2.72,0,0,1-1-.69A1.42,1.42,0,0,1,103.13,62.07Zm3.75-13.77a1.47,1.47,0,0,0-.91.37V58a2.92,2.92,0,0,0,1.36-.4c.5-.26.75-.55.75-.84V50Q108.08,48.3,106.88,48.3Z"/><path d="M119,46.12a1.76,1.76,0,0,1,.58.36,4.64,4.64,0,0,1,.94,1,2.17,2.17,0,0,1,.47,1.25v3.95c0,.28-.41.62-1.24,1a19,19,0,0,1-2.41,1,11,11,0,0,1-1.25.38,2,2,0,0,0,1.57,2.23,7.68,7.68,0,0,0,1.85.19v.68c-2.56.86-3.93,1.29-4.1,1.29-.47,0-.95-.33-1.43-1a3.8,3.8,0,0,1-.73-2.33V48.28a10.92,10.92,0,0,1,2.67-1.17A18.29,18.29,0,0,1,119,46.12Zm-1.13,2.61a.9.9,0,0,0-.77-.45,2,2,0,0,0-1,.35v5.42a2.5,2.5,0,0,0,2.12-2.54V49.85A2,2,0,0,0,117.84,48.73Z"/><path d="M122,47.52l2.58-1.4.39.13a1.94,1.94,0,0,1,.61.45,1.16,1.16,0,0,1,.39.85c.07,0,.45-.28,1.11-.74a3.59,3.59,0,0,1,1.28-.69,1.81,1.81,0,0,1,1.41,1,3.39,3.39,0,0,1,.65,1.81v1.15l-2.41,1.36-.4-.33c0-1.31-.13-2.06-.38-2.25a2.16,2.16,0,0,0-1.26-.31V56q0,1.42,1,1.62v.51l-2.37,1.34a2.6,2.6,0,0,1-1-.69,1.37,1.37,0,0,1-.45-.9V50.11a2.71,2.71,0,0,0-.36-1.55A1,1,0,0,0,122,48Z"/><path d="M76.43,63.25a.55.55,0,0,0-.43.24v9.69a8.31,8.31,0,0,0,.12,1.58A3.19,3.19,0,0,0,76.64,76c.51.75,1.69,1.12,3.54,1.12v.68a17.58,17.58,0,0,0-1.74.65,8.63,8.63,0,0,1-2,.65,2.93,2.93,0,0,1-2.23-1.35,4.57,4.57,0,0,1-1-2.85V63.14A10.67,10.67,0,0,1,75.88,62,17.81,17.81,0,0,1,79,61c.09,0,.2.22.33.68s.27,1,.43,1.64a5.91,5.91,0,0,0,.52,1.42,1.07,1.07,0,0,0,1,.46v.47c-.34.15-.93.43-1.75.83a11.35,11.35,0,0,1-1.32.6c-.24,0-.54-.64-.9-1.91S76.65,63.25,76.43,63.25Z"/><path d="M81.52,67.08l2.58-1.41.39.13a2,2,0,0,1,.61.46,1.17,1.17,0,0,1,.38.84c.08,0,.45-.28,1.12-.74a3.51,3.51,0,0,1,1.28-.69,1.8,1.8,0,0,1,1.41,1,3.36,3.36,0,0,1,.65,1.8v1.15L87.53,71l-.4-.33c0-1.31-.13-2.06-.38-2.25a2.18,2.18,0,0,0-1.27-.3v7.48c0,1,.32,1.5,1,1.62v.52l-2.37,1.34a2.88,2.88,0,0,1-1-.7,1.4,1.4,0,0,1-.44-.9V69.66a2.65,2.65,0,0,0-.37-1.55,1,1,0,0,0-.78-.51Z"/><path d="M97.45,68.77v6.64a1.94,1.94,0,0,0,.28,1.21,1.66,1.66,0,0,0,.87.48v.51L96,79.05a3,3,0,0,1-1-.7,1.36,1.36,0,0,1-.45-.88L91.7,79.05l-.21-.13L91,78.56a4.1,4.1,0,0,1-.6-.57,2.54,2.54,0,0,1-.7-1.76V72.38c0-.25.4-.57,1.22-1a17.13,17.13,0,0,1,2.44-1l1.24-.4a2.21,2.21,0,0,0-.7-1.87,4.91,4.91,0,0,0-2.72-.52V67a28.4,28.4,0,0,1,4.08-1.29,1.93,1.93,0,0,1,1.48,1A3.59,3.59,0,0,1,97.45,68.77Zm-4.56,7.61a1.08,1.08,0,0,0,.81.39,1.64,1.64,0,0,0,.93-.35V71.11c-.39.15-.68.26-.88.36a2.66,2.66,0,0,0-.62.44,2.61,2.61,0,0,0-.61,2v1.53A1.37,1.37,0,0,0,92.89,76.38Z"/><path d="M100.88,73.91c-.4,0-.73-.3-1-.89a5.15,5.15,0,0,1-.43-2.19V68.3c0-.3.83-.81,2.47-1.54a14.37,14.37,0,0,1,2.84-1.09.45.45,0,0,1,.37.25c.11.16.2.29.26.4s.16.27.29.51l.34.6a.9.9,0,0,0,.78.56v.47c-.25.11-.58.28-1,.5a13.39,13.39,0,0,1-1.62.82c-.23,0-.48-.39-.76-1.15s-.52-1.15-.74-1.15-.42.23-.42.7v2.89c0,.62.14.94.42.94a14.88,14.88,0,0,0,1.46-.61,6.6,6.6,0,0,1,1.64-.61c.38,0,.71.3,1,.9a5.32,5.32,0,0,1,.43,2.31v2.65c0,.3-.89.81-2.69,1.54a16.79,16.79,0,0,1-3.08,1.09c-.11,0-.22-.1-.32-.29s-.24-.5-.42-.91a9.68,9.68,0,0,0-.53-1,.89.89,0,0,0-.77-.56V76c.25-.11.58-.28,1-.49A12.18,12.18,0,0,1,102,74.7c.24,0,.53.47.88,1.39s.64,1.38.86,1.38a.66.66,0,0,0,.44-.18.65.65,0,0,0,.22-.52V73.84c0-.71-.2-1.06-.59-1.06a8.12,8.12,0,0,0-1.48.56A8.57,8.57,0,0,1,100.88,73.91Z"/><path d="M109.3,77.45V65.84a1.5,1.5,0,0,0-.21-.91.87.87,0,0,0-.73-.27V64q3-1.59,5.45-3l.37.75a4.29,4.29,0,0,0-.66.46,5.1,5.1,0,0,0-.7.69,3.18,3.18,0,0,0-.7,2v2a13.14,13.14,0,0,1,2.81-1.24,1.84,1.84,0,0,1,1.43.94,3.37,3.37,0,0,1,.68,2.06v6.9a1.38,1.38,0,0,0,1.15,1.53v.51l-2.55,1.44a2.88,2.88,0,0,1-1-.7,1.4,1.4,0,0,1-.44-.9V70.64c0-1.53-.28-2.4-.85-2.6a4.22,4.22,0,0,0-1.26-.14v7.67q0,1.44,1,1.62v.52l-2.37,1.34a2.75,2.75,0,0,1-1-.7A1.37,1.37,0,0,1,109.3,77.45Z"/><path d="M125.14,65.67a1.66,1.66,0,0,1,.58.36,4.89,4.89,0,0,1,.94,1,2.1,2.1,0,0,1,.47,1.26v3.94c0,.28-.41.63-1.24,1a19,19,0,0,1-2.41,1,12.66,12.66,0,0,1-1.25.39,2.05,2.05,0,0,0,1.57,2.23,8.28,8.28,0,0,0,1.85.18v.68c-2.56.87-3.93,1.3-4.1,1.3-.47,0-1-.34-1.43-1a3.85,3.85,0,0,1-.73-2.34V67.83a10.71,10.71,0,0,1,2.67-1.16A17.81,17.81,0,0,1,125.14,65.67ZM124,68.29a.89.89,0,0,0-.77-.46,2,2,0,0,0-1,.35V73.6a2.49,2.49,0,0,0,2.11-2.53V69.4A2,2,0,0,0,124,68.29Z"/><path d="M128.21,67.08l2.58-1.41.39.13a2,2,0,0,1,.61.46,1.14,1.14,0,0,1,.39.84c.07,0,.45-.28,1.11-.74a3.59,3.59,0,0,1,1.28-.69,1.8,1.8,0,0,1,1.41,1,3.28,3.28,0,0,1,.65,1.8v1.15L134.22,71l-.4-.33c0-1.31-.13-2.06-.38-2.25a2.17,2.17,0,0,0-1.26-.3v7.48q0,1.44,1,1.62v.52l-2.37,1.34a2.75,2.75,0,0,1-1-.7,1.37,1.37,0,0,1-.45-.9V69.66a2.73,2.73,0,0,0-.36-1.55,1,1,0,0,0-.79-.51Z"/><polygon class="cls-2" points="65.19 83.03 44.66 54.31 22.9 54.45 38.51 39.28 33.01 4.41 53.54 33.13 75.31 32.99 59.69 48.16 65.19 83.03"/></g></svg>