<svg xmlns="http://www.w3.org/2000/svg" viewBox="0 0 160 90"><defs><style>.cls-1{opacity:0.6;}.cls-2{fill:#fe6228;}</style></defs><g id="Camada_3" data-name="Camada 3"><path class="cls-2" d="M76,43A13.79,13.79,0,0,1,79,41.47c.25,0,.65.32,1.19,1A2.86,2.86,0,0,1,81,44.17v7.3c0,.11-.63.41-1.87.91s-2.27.88-3.08,1.13v2.37a3.07,3.07,0,0,0,.18,1.24.8.8,0,0,0,.78.38v.73l-4.81,2-.38-.75a1.29,1.29,0,0,0,1-.61,3.05,3.05,0,0,0,.42-1.78V44.94c0-.95-.32-1.49-1-1.61v-.52l2.37-1.34a2.88,2.88,0,0,1,.94.68A1.41,1.41,0,0,1,76,43Zm.91.69a1.54,1.54,0,0,0-.91.35v8.33A3,3,0,0,0,77.37,52q.75-.39.75-.81V45.46C78.12,44.3,77.72,43.73,76.92,43.73Z"/><path class="cls-2" d="M88.82,46.12a1.76,1.76,0,0,1,.58.36,4.64,4.64,0,0,1,.94,1,2.17,2.17,0,0,1,.47,1.26v3.94c0,.28-.41.62-1.24,1a19,19,0,0,1-2.41,1,11,11,0,0,1-1.25.38,2,2,0,0,0,1.57,2.23,7.68,7.68,0,0,0,1.85.19v.68c-2.56.86-3.93,1.29-4.1,1.29q-.7,0-1.44-1a3.91,3.91,0,0,1-.72-2.34V48.28a10.71,10.71,0,0,1,2.67-1.16A17.81,17.81,0,0,1,88.82,46.12Zm-1.13,2.61a.9.9,0,0,0-.77-.45,2,2,0,0,0-1,.35v5.42A2.5,2.5,0,0,0,88,51.52V49.85A2,2,0,0,0,87.69,48.73Z"/><path class="cls-2" d="M93,62.07V49.73a2.13,2.13,0,0,0-.29-1,1.1,1.1,0,0,0-.84-.59v-.52a25.48,25.48,0,0,0,2.56-1.43,3.12,3.12,0,0,1,1,.69,1.35,1.35,0,0,1,.43.86,12,12,0,0,1,2.93-1.55,1.37,1.37,0,0,1,.62.37,4.47,4.47,0,0,1,.92,1.05,2.6,2.6,0,0,1,.46,1.42v8.35a6.81,6.81,0,0,1-2.08,1c-1.38.54-2.34.88-2.87,1v.87q0,1.42,1,1.62v.51l-2.37,1.34a2.6,2.6,0,0,1-1-.69A1.39,1.39,0,0,1,93,62.07ZM96.79,48.3a1.49,1.49,0,0,0-.91.38V58a2.89,2.89,0,0,0,1.36-.4c.5-.26.75-.55.75-.84V50Q98,48.3,96.79,48.3Z"/><path class="cls-2" d="M103.13,62.07V49.73a2.13,2.13,0,0,0-.29-1,1.1,1.1,0,0,0-.84-.59v-.52a26.86,26.86,0,0,0,2.56-1.43,3,3,0,0,1,1,.69,1.32,1.32,0,0,1,.44.86,12,12,0,0,1,2.93-1.55,1.37,1.37,0,0,1,.62.37,4.47,4.47,0,0,1,.92,1.05A2.6,2.6,0,0,1,110.9,49v8.35a7,7,0,0,1-2.08,1c-1.39.54-2.34.88-2.87,1v.87q0,1.42,1,1.62v.51l-2.37,1.34a2.6,2.6,0,0,1-1-.69A1.39,1.39,0,0,1,103.13,62.07Zm3.75-13.77a1.49,1.49,0,0,0-.91.38V58a2.92,2.92,0,0,0,1.36-.4c.5-.26.75-.55.75-.84V50Q108.08,48.3,106.88,48.3Z"/><path class="cls-2" d="M119,46.12a1.66,1.66,0,0,1,.58.36,4.64,4.64,0,0,1,.94,1,2.1,2.1,0,0,1,.47,1.26v3.94c0,.28-.41.62-1.24,1a19,19,0,0,1-2.41,1,11,11,0,0,1-1.25.38,2,2,0,0,0,1.57,2.23,7.68,7.68,0,0,0,1.85.19v.68c-2.56.86-3.93,1.29-4.1,1.29a1.93,1.93,0,0,1-1.43-1,3.85,3.85,0,0,1-.73-2.34V48.28a10.71,10.71,0,0,1,2.67-1.16A17.81,17.81,0,0,1,119,46.12Zm-1.13,2.61a.9.9,0,0,0-.77-.45,1.89,1.89,0,0,0-1,.35v5.42a2.5,2.5,0,0,0,2.11-2.53V49.85A2,2,0,0,0,117.84,48.73Z"/><path class="cls-2" d="M122,47.53l2.58-1.41.39.13a1.94,1.94,0,0,1,.61.45,1.16,1.16,0,0,1,.39.85c.07,0,.45-.28,1.11-.74a3.59,3.59,0,0,1,1.28-.69,1.81,1.81,0,0,1,1.41,1,3.31,3.31,0,0,1,.65,1.81v1.15l-2.41,1.36-.4-.33c0-1.31-.13-2.06-.38-2.25a2.16,2.16,0,0,0-1.26-.31V56q0,1.42,1,1.62v.51l-2.37,1.34a2.6,2.6,0,0,1-1-.69,1.37,1.37,0,0,1-.45-.9V50.11a2.71,2.71,0,0,0-.36-1.55A1,1,0,0,0,122,48Z"/><path class="cls-2" d="M76.43,63.26a.51.51,0,0,0-.42.23v9.69a8.37,8.37,0,0,0,.11,1.58A3.19,3.19,0,0,0,76.64,76c.52.75,1.7,1.13,3.54,1.13v.68a16.22,16.22,0,0,0-1.73.64,8.8,8.8,0,0,1-2,.65,2.9,2.9,0,0,1-2.22-1.35,4.53,4.53,0,0,1-1.06-2.85V63.14A10.67,10.67,0,0,1,75.88,62,18.11,18.11,0,0,1,79,61c.1,0,.2.23.33.68s.27,1,.43,1.64a5.91,5.91,0,0,0,.52,1.42,1.07,1.07,0,0,0,1,.46v.47c-.34.16-.93.43-1.75.83a11.35,11.35,0,0,1-1.32.6c-.24,0-.53-.64-.89-1.91S76.65,63.26,76.43,63.26Z"/><path class="cls-2" d="M81.52,67.08l2.58-1.41.39.13a2.2,2.2,0,0,1,.61.46,1.14,1.14,0,0,1,.39.84c.07,0,.44-.27,1.11-.74a3.51,3.51,0,0,1,1.28-.69,1.8,1.8,0,0,1,1.41,1,3.36,3.36,0,0,1,.65,1.8v1.15L87.53,71l-.4-.33c0-1.32-.13-2.07-.38-2.26a2.17,2.17,0,0,0-1.26-.3v7.48q0,1.44,1,1.62v.52l-2.37,1.34a2.52,2.52,0,0,1-1-.7,1.37,1.37,0,0,1-.45-.9V69.66a2.73,2.73,0,0,0-.36-1.55,1,1,0,0,0-.79-.51Z"/><path class="cls-2" d="M97.45,68.77v6.64a1.94,1.94,0,0,0,.28,1.21,1.53,1.53,0,0,0,.87.48v.51L96,79.05a2.68,2.68,0,0,1-1-.7,1.34,1.34,0,0,1-.44-.88L91.7,79.05l-.21-.13a5.67,5.67,0,0,1-.48-.36,3.63,3.63,0,0,1-.6-.57,2.54,2.54,0,0,1-.7-1.76V72.38c0-.25.4-.57,1.22-1a17.13,17.13,0,0,1,2.44-1l1.24-.4a2.21,2.21,0,0,0-.7-1.87,4.91,4.91,0,0,0-2.72-.52V67a28.4,28.4,0,0,1,4.08-1.29,1.92,1.92,0,0,1,1.48,1A3.59,3.59,0,0,1,97.45,68.77Zm-4.56,7.61a1.08,1.08,0,0,0,.81.39,1.69,1.69,0,0,0,.94-.35v-5.3a7.2,7.2,0,0,0-.88.35,2.5,2.5,0,0,0-.63.44,2.61,2.61,0,0,0-.61,2v1.53A1.35,1.35,0,0,0,92.89,76.38Z"/><path class="cls-2" d="M100.88,73.91c-.39,0-.73-.3-1-.89a5.15,5.15,0,0,1-.42-2.19V68.3c0-.3.82-.81,2.46-1.54a15.15,15.15,0,0,1,2.84-1.09.45.45,0,0,1,.37.25l.26.4c.06.1.16.27.29.51s.25.45.35.6a.87.87,0,0,0,.77.56v.47c-.25.11-.58.28-1,.5a13.39,13.39,0,0,1-1.62.82c-.23,0-.48-.39-.76-1.15s-.52-1.15-.74-1.15-.42.23-.42.7v2.89c0,.62.14.94.42.94a14.88,14.88,0,0,0,1.46-.61,6.6,6.6,0,0,1,1.64-.61c.38,0,.71.3,1,.9a5.32,5.32,0,0,1,.43,2.31v2.65c0,.3-.89.81-2.68,1.54a17,17,0,0,1-3.09,1.09c-.11,0-.22-.1-.32-.29s-.24-.5-.42-.91a9.68,9.68,0,0,0-.53-1,.89.89,0,0,0-.77-.56V76c.25-.11.59-.27,1-.49a11.28,11.28,0,0,1,1.59-.82c.24,0,.53.46.88,1.38s.64,1.38.86,1.38a.66.66,0,0,0,.44-.18.65.65,0,0,0,.22-.52V73.84c0-.71-.2-1.06-.59-1.06a8.12,8.12,0,0,0-1.48.56A8.57,8.57,0,0,1,100.88,73.91Z"/><path class="cls-2" d="M109.3,77.45V65.84a1.5,1.5,0,0,0-.21-.91.87.87,0,0,0-.73-.27V64q3-1.61,5.45-3l.37.75a4.29,4.29,0,0,0-.66.46,5.1,5.1,0,0,0-.7.69,3.18,3.18,0,0,0-.7,2v2a12.67,12.67,0,0,1,2.81-1.25,1.84,1.84,0,0,1,1.43.94,3.4,3.4,0,0,1,.68,2.07v6.89a1.38,1.38,0,0,0,1.15,1.53v.51l-2.55,1.44a2.63,2.63,0,0,1-1-.7,1.4,1.4,0,0,1-.44-.9v-6.8c0-1.54-.28-2.4-.85-2.61a4.22,4.22,0,0,0-1.26-.14v7.67q0,1.44,1,1.62v.52l-2.37,1.34a2.52,2.52,0,0,1-1-.7A1.37,1.37,0,0,1,109.3,77.45Z"/><path class="cls-2" d="M125.14,65.67a1.69,1.69,0,0,1,.59.37,4.8,4.8,0,0,1,.93,1,2.13,2.13,0,0,1,.47,1.26v3.94c0,.28-.41.63-1.24,1a19,19,0,0,1-2.41,1,12.66,12.66,0,0,1-1.25.39,2,2,0,0,0,1.57,2.23,8.32,8.32,0,0,0,1.86.19v.68q-3.85,1.29-4.11,1.29c-.47,0-1-.34-1.43-1a3.83,3.83,0,0,1-.73-2.34V67.83a10.71,10.71,0,0,1,2.67-1.16A17.81,17.81,0,0,1,125.14,65.67ZM124,68.29a.89.89,0,0,0-.77-.46,2,2,0,0,0-1,.35V73.6a2.49,2.49,0,0,0,2.11-2.53V69.4A1.89,1.89,0,0,0,124,68.29Z"/><path class="cls-2" d="M128.21,67.08l2.58-1.41.39.13a2.2,2.2,0,0,1,.61.46,1.14,1.14,0,0,1,.39.84,11.15,11.15,0,0,0,1.11-.74,3.59,3.59,0,0,1,1.28-.69,1.8,1.8,0,0,1,1.41,1,3.3,3.3,0,0,1,.66,1.8v1.15L134.22,71l-.4-.33c0-1.32-.13-2.07-.38-2.26a2.17,2.17,0,0,0-1.26-.3v7.48q0,1.44,1,1.62v.52l-2.37,1.34a2.52,2.52,0,0,1-1-.7,1.37,1.37,0,0,1-.45-.9V69.66a2.73,2.73,0,0,0-.36-1.55,1,1,0,0,0-.79-.51Z"/><polygon class="cls-2" points="65.19 83.03 44.66 54.31 22.9 54.45 38.51 39.28 33.01 4.41 53.54 33.13 75.31 32.99 59.69 48.16 65.19 83.03"/></g></svg>