<svg xmlns="http://www.w3.org/2000/svg" viewBox="0 0 160 90"><defs><style>.cls-1{opacity:0.6;}</style></defs><g id="Camada_3" data-name="Camada 3"><path d="M76,43a13.22,13.22,0,0,1,3-1.57c.25,0,.64.32,1.18,1A2.83,2.83,0,0,1,81,44.17v7.3a6.07,6.07,0,0,1-1.86.91c-1.25.5-2.27.88-3.09,1.13v2.37a2.88,2.88,0,0,0,.19,1.24.78.78,0,0,0,.77.38v.72l-4.81,2-.37-.75a1.27,1.27,0,0,0,1-.61,3,3,0,0,0,.43-1.78V44.94c0-.95-.32-1.49-1-1.62v-.51l2.37-1.34a2.57,2.57,0,0,1,.94.68A1.36,1.36,0,0,1,76,43Zm.92.68a1.66,1.66,0,0,0-.92.35V52.4A3.09,3.09,0,0,0,77.36,52q.75-.39.75-.81V45.46C78.11,44.3,77.72,43.72,76.92,43.72Z"/><path d="M88.81,46.11a1.77,1.77,0,0,1,.59.37,4.9,4.9,0,0,1,.94,1,2.17,2.17,0,0,1,.47,1.25v3.94c0,.29-.42.63-1.25,1a18.79,18.79,0,0,1-2.4,1,11.5,11.5,0,0,1-1.26.39,2,2,0,0,0,1.58,2.23,7.63,7.63,0,0,0,1.85.19v.68c-2.57.86-3.93,1.29-4.11,1.29-.47,0-.94-.33-1.43-1a3.86,3.86,0,0,1-.72-2.33V48.27a11.2,11.2,0,0,1,2.67-1.16A19,19,0,0,1,88.81,46.11Zm-1.12,2.62a.93.93,0,0,0-.78-.46,2,2,0,0,0-1,.36v5.42A2.5,2.5,0,0,0,88,51.51V49.85A2,2,0,0,0,87.69,48.73Z"/><path d="M93,62.07V49.73a2.11,2.11,0,0,0-.3-1.06,1.06,1.06,0,0,0-.83-.58v-.52c.11,0,1-.49,2.56-1.43a3.08,3.08,0,0,1,1,.69,1.32,1.32,0,0,1,.44.86,11.62,11.62,0,0,1,2.93-1.55,1.42,1.42,0,0,1,.62.36,4.55,4.55,0,0,1,.92,1.06A2.56,2.56,0,0,1,100.8,49v8.35a6.82,6.82,0,0,1-2.07,1q-2.08.8-2.88,1v.86q0,1.44,1,1.62v.52l-2.37,1.34a2.81,2.81,0,0,1-1-.7A1.4,1.4,0,0,1,93,62.07ZM96.79,48.3a1.45,1.45,0,0,0-.91.37V58a3,3,0,0,0,1.36-.4c.5-.27.75-.55.75-.85V50C98,48.88,97.59,48.3,96.79,48.3Z"/><path d="M103.13,62.07V49.73a2.11,2.11,0,0,0-.3-1.06,1.06,1.06,0,0,0-.83-.58v-.52c.11,0,1-.49,2.56-1.43a3.08,3.08,0,0,1,1,.69,1.32,1.32,0,0,1,.44.86,11.62,11.62,0,0,1,2.93-1.55,1.42,1.42,0,0,1,.62.36,4.55,4.55,0,0,1,.92,1.06,2.56,2.56,0,0,1,.45,1.42v8.35a6.82,6.82,0,0,1-2.07,1q-2.08.8-2.88,1v.86q0,1.44,1,1.62v.52l-2.37,1.34a2.81,2.81,0,0,1-1-.7A1.36,1.36,0,0,1,103.13,62.07Zm3.75-13.77a1.45,1.45,0,0,0-.91.37V58a3,3,0,0,0,1.36-.4c.5-.27.75-.55.75-.85V50C108.08,48.88,107.68,48.3,106.88,48.3Z"/><path d="M119,46.11a1.77,1.77,0,0,1,.59.37,4.9,4.9,0,0,1,.94,1,2.17,2.17,0,0,1,.47,1.25v3.94c0,.29-.42.63-1.24,1a19.52,19.52,0,0,1-2.41,1,12.66,12.66,0,0,1-1.25.39,2,2,0,0,0,1.57,2.23,7.63,7.63,0,0,0,1.85.19v.68q-3.84,1.29-4.11,1.29c-.46,0-.94-.33-1.43-1a3.86,3.86,0,0,1-.72-2.33V48.27a11.2,11.2,0,0,1,2.67-1.16A19,19,0,0,1,119,46.11Zm-1.12,2.62a.91.91,0,0,0-.78-.46,2,2,0,0,0-1,.36v5.42a2.5,2.5,0,0,0,2.11-2.54V49.85A2,2,0,0,0,117.84,48.73Z"/><path d="M122,47.52l2.58-1.41.39.13a2.36,2.36,0,0,1,.61.46,1.17,1.17,0,0,1,.38.85c.08,0,.45-.28,1.12-.74a3.6,3.6,0,0,1,1.28-.7,1.77,1.77,0,0,1,1.4,1,3.33,3.33,0,0,1,.66,1.81v1.15L128,51.42l-.39-.33c0-1.31-.13-2.07-.38-2.25a2.1,2.1,0,0,0-1.27-.31V56c0,.95.32,1.49,1,1.62v.51l-2.37,1.34a2.72,2.72,0,0,1-1-.69,1.4,1.4,0,0,1-.44-.91V50.1a2.61,2.61,0,0,0-.37-1.54A1,1,0,0,0,122,48Z"/><path d="M76.42,63.25a.55.55,0,0,0-.42.24v9.69a8.39,8.39,0,0,0,.12,1.58A3.19,3.19,0,0,0,76.64,76c.51.75,1.69,1.12,3.54,1.12v.68a17.58,17.58,0,0,0-1.74.65,8.52,8.52,0,0,1-2,.64,2.93,2.93,0,0,1-2.23-1.35,4.55,4.55,0,0,1-1-2.85V63.13A11.7,11.7,0,0,1,75.87,62,18.25,18.25,0,0,1,79,61c.09,0,.2.22.33.68s.27,1,.43,1.64a6.08,6.08,0,0,0,.52,1.42,1.1,1.1,0,0,0,1,.46v.46l-1.75.84a10.24,10.24,0,0,1-1.33.6c-.23,0-.53-.64-.89-1.92S76.64,63.25,76.42,63.25Z"/><path d="M81.52,67.08l2.58-1.41a2.87,2.87,0,0,1,.38.13,1.9,1.9,0,0,1,.61.46,1.14,1.14,0,0,1,.39.84c.08,0,.45-.28,1.12-.74a3.51,3.51,0,0,1,1.28-.69,1.78,1.78,0,0,1,1.4,1,3.33,3.33,0,0,1,.66,1.81v1.15L87.52,71l-.4-.33c0-1.31-.12-2.06-.37-2.25a2.18,2.18,0,0,0-1.27-.3v7.48q0,1.43,1,1.62v.52L84.07,79a2.77,2.77,0,0,1-1-.69,1.36,1.36,0,0,1-.44-.9V69.66a2.7,2.7,0,0,0-.37-1.55,1,1,0,0,0-.78-.52Z"/><path d="M97.45,68.77v6.64a1.88,1.88,0,0,0,.28,1.2,1.6,1.6,0,0,0,.87.49v.51L96,79a2.77,2.77,0,0,1-1-.69,1.36,1.36,0,0,1-.45-.88L91.7,79l-.21-.13a3.27,3.27,0,0,1-.48-.35,4.1,4.1,0,0,1-.6-.57,2.56,2.56,0,0,1-.7-1.76V72.38c0-.25.4-.57,1.22-1a17.13,17.13,0,0,1,2.44-1l1.24-.4a2.21,2.21,0,0,0-.7-1.87,4.91,4.91,0,0,0-2.73-.53V67a28.73,28.73,0,0,1,4.09-1.29,1.9,1.9,0,0,1,1.47,1A3.6,3.6,0,0,1,97.45,68.77Zm-4.57,7.61a1.11,1.11,0,0,0,.81.39,1.66,1.66,0,0,0,.94-.35V71.11c-.39.14-.68.26-.88.35a3.08,3.08,0,0,0-.62.45,2.56,2.56,0,0,0-.61,2v1.52A1.41,1.41,0,0,0,92.88,76.38Z"/><path d="M100.87,73.9c-.39,0-.72-.29-1-.89a4.93,4.93,0,0,1-.43-2.18V68.3c0-.3.82-.81,2.47-1.54a14.13,14.13,0,0,1,2.84-1.09.45.45,0,0,1,.37.25c.11.16.2.29.26.39l.29.52.34.6a.9.9,0,0,0,.78.56v.47c-.25.11-.58.27-1,.49a11.78,11.78,0,0,1-1.62.82c-.23,0-.49-.38-.76-1.14s-.52-1.15-.74-1.15-.42.23-.42.7v2.89q0,.93.42.93a13.21,13.21,0,0,0,1.46-.61,7.09,7.09,0,0,1,1.64-.61c.37,0,.71.31,1,.91a5.47,5.47,0,0,1,.43,2.31v2.65c0,.3-.9.81-2.69,1.54a18,18,0,0,1-3.08,1.09c-.11,0-.22-.1-.32-.3s-.24-.49-.42-.9a9.68,9.68,0,0,0-.53-1,.87.87,0,0,0-.77-.56V76c.25-.11.58-.28,1-.5a13.27,13.27,0,0,1,1.6-.82c.23,0,.53.46.88,1.39s.64,1.38.86,1.38a.68.68,0,0,0,.65-.7V73.83c0-.7-.19-1-.58-1a8.12,8.12,0,0,0-1.48.56A8,8,0,0,1,100.87,73.9Z"/><path d="M109.3,77.45V65.83a1.49,1.49,0,0,0-.21-.9.88.88,0,0,0-.73-.27V64c2-1.06,3.85-2.06,5.44-3l.38.75a3.86,3.86,0,0,0-.66.46,4.17,4.17,0,0,0-.7.69,3.17,3.17,0,0,0-.71,2v2a12.33,12.33,0,0,1,2.82-1.24,1.84,1.84,0,0,1,1.43.94,3.44,3.44,0,0,1,.68,2.06v6.9a1.37,1.37,0,0,0,1.15,1.53v.51L115.63,79a2.77,2.77,0,0,1-1-.69,1.37,1.37,0,0,1-.45-.9V70.64c0-1.53-.28-2.4-.84-2.6a4,4,0,0,0-1.27-.14v7.67c0,1,.32,1.49,1,1.62v.52L110.71,79a2.72,2.72,0,0,1-1-.69A1.4,1.4,0,0,1,109.3,77.45Z"/><path d="M125.14,65.67a1.76,1.76,0,0,1,.58.36,4.64,4.64,0,0,1,.94,1,2.17,2.17,0,0,1,.47,1.26v3.94c0,.28-.41.62-1.24,1a19,19,0,0,1-2.41,1,12.66,12.66,0,0,1-1.25.39,2,2,0,0,0,1.57,2.22,7.63,7.63,0,0,0,1.85.19v.68c-2.56.86-3.93,1.29-4.1,1.29q-.7,0-1.44-1a3.91,3.91,0,0,1-.72-2.34V67.83a10.71,10.71,0,0,1,2.67-1.16A17.81,17.81,0,0,1,125.14,65.67ZM124,68.28a.9.9,0,0,0-.77-.45,2,2,0,0,0-1,.35V73.6a2.49,2.49,0,0,0,2.11-2.53V69.4A2,2,0,0,0,124,68.28Z"/><path d="M128.21,67.08l2.58-1.41a3.54,3.54,0,0,1,.39.13,2,2,0,0,1,.61.46,1.13,1.13,0,0,1,.38.84c.08,0,.45-.28,1.12-.74a3.51,3.51,0,0,1,1.28-.69,1.81,1.81,0,0,1,1.41,1,3.39,3.39,0,0,1,.65,1.81v1.15L134.22,71l-.4-.33c0-1.31-.13-2.06-.38-2.25a2.18,2.18,0,0,0-1.27-.3v7.48c0,1,.33,1.49,1,1.62v.52L130.77,79a2.6,2.6,0,0,1-1-.69,1.37,1.37,0,0,1-.45-.9V69.66a2.71,2.71,0,0,0-.36-1.55,1,1,0,0,0-.79-.52Z"/><polygon points="65.2 83.03 44.67 54.31 22.9 54.45 38.51 39.28 33.01 4.41 53.54 33.13 75.31 32.99 59.7 48.16 65.2 83.03"/></g></svg>